# xmcd CD database file
#
# Track frame offsets:
#	150
#	16431
#	30588
#	52670
#	68227
#	81130
#	93289
#	105315
#	128394
#	147703
#	160609
#	174751
#	195696
#	208253
#	225409
#	241861
#
# Disc length: 3367 seconds
#
# Revision: 0
# Processed by: cddbd v1.5.1PL2 Copyright (c) Steve Scherf et al.
# Submitted via: CDex 1.51
#
DISCID=be0d2510
DTITLE=Christoph Pfaff and The Blues Train - Roll On!
DYEAR=2000
DGENRE=Blues
TTITLE0=Blow Wind Blow
TTITLE1=Tribute To Jimmy Yancey
TTITLE2=Fifteen Years
TTITLE3=Walking The Dog
TTITLE4=No Particular Place To Go
TTITLE5=She's Crying
TTITLE6=Spann's Stomp
TTITLE7=Georgia
TTITLE8=Real Good Woman
TTITLE9=Margie
TTITLE10=Shim Sham Shimmy
TTITLE11=Good Times Bad Times
TTITLE12=Rock It Boogie
TTITLE13=Crosscut Saw
TTITLE14=Getting Old Is Not So Fine
TTITLE15=Shout For Joy
EXTD=YEAR: 2000
EXTT0=
EXTT1=
EXTT2=
EXTT3=
EXTT4=
EXTT5=
EXTT6=
EXTT7=
EXTT8=
EXTT9=
EXTT10=
EXTT11=
EXTT12=
EXTT13=
EXTT14=
EXTT15=
PLAYORDER=
